<?xml version="1.0" encoding="UTF-8" standalone="no"?>
<!DOCTYPE svg PUBLIC "-//W3C//DTD SVG 1.1//EN"
 "http://www.w3.org/Graphics/SVG/1.1/DTD/svg11.dtd">
<!-- Generated by graphviz version 12.1.2 (20240928.0832)
 -->
<!-- Pages: 1 -->
<svg width="115pt" height="188pt"
 viewBox="0.00 0.00 114.83 188.00" xmlns="http://www.w3.org/2000/svg" xmlns:xlink="http://www.w3.org/1999/xlink">
<g id="graph0" class="graph" transform="scale(1 1) rotate(0) translate(4 184)">
<polygon fill="white" stroke="none" points="-4,4 -4,-184 110.83,-184 110.83,4 -4,4"/>
<!-- root[0] -->
<g id="node1" class="node">
<title>root[0]</title>
<ellipse fill="none" stroke="black" cx="53.41" cy="-162" rx="37.85" ry="18"/>
<text text-anchor="middle" x="53.41" y="-157.8" font-family="Times,serif" font-size="14.00">root[0]</text>
</g>
<!-- subflow[1] -->
<g id="node2" class="node">
<title>subflow[1]</title>
<ellipse fill="none" stroke="black" cx="53.41" cy="-90" rx="53.41" ry="18"/>
<text text-anchor="middle" x="53.41" y="-85.8" font-family="Times,serif" font-size="14.00">subflow[1]</text>
</g>
<!-- root[0]&#45;&gt;subflow[1] -->
<g id="edge1" class="edge">
<title>root[0]&#45;&gt;subflow[1]</title>
<path fill="none" stroke="black" d="M53.41,-143.7C53.41,-136.41 53.41,-127.73 53.41,-119.54"/>
<polygon fill="black" stroke="black" points="56.91,-119.62 53.41,-109.62 49.91,-119.62 56.91,-119.62"/>
</g>
<!-- end[2] -->
<g id="node3" class="node">
<title>end[2]</title>
<ellipse fill="none" stroke="black" cx="53.41" cy="-18" rx="36.24" ry="18"/>
<text text-anchor="middle" x="53.41" y="-13.8" font-family="Times,serif" font-size="14.00">end[2]</text>
</g>
<!-- subflow[1]&#45;&gt;end[2] -->
<g id="edge2" class="edge">
<title>subflow[1]&#45;&gt;end[2]</title>
<path fill="none" stroke="black" d="M53.41,-71.7C53.41,-64.41 53.41,-55.73 53.41,-47.54"/>
<polygon fill="black" stroke="black" points="56.91,-47.62 53.41,-37.62 49.91,-47.62 56.91,-47.62"/>
</g>
</g>
</svg>
