<?xml version="1.0" encoding="UTF-8" standalone="no"?>
<!DOCTYPE svg PUBLIC "-//W3C//DTD SVG 1.1//EN"
 "http://www.w3.org/Graphics/SVG/1.1/DTD/svg11.dtd">
<!-- Generated by graphviz version 12.1.2 (20240928.0832)
 -->
<!-- Pages: 1 -->
<svg width="444pt" height="548pt"
 viewBox="0.00 0.00 444.09 548.00" xmlns="http://www.w3.org/2000/svg" xmlns:xlink="http://www.w3.org/1999/xlink">
<g id="graph0" class="graph" transform="scale(1 1) rotate(0) translate(4 544)">
<polygon fill="white" stroke="none" points="-4,4 -4,-544 440.09,-544 440.09,4 -4,4"/>
<!-- root[0] -->
<g id="node1" class="node">
<title>root[0]</title>
<ellipse fill="none" stroke="black" cx="201.54" cy="-522" rx="37.85" ry="18"/>
<text text-anchor="middle" x="201.54" y="-517.8" font-family="Times,serif" font-size="14.00">root[0]</text>
</g>
<!-- branchA[1] -->
<g id="node2" class="node">
<title>branchA[1]</title>
<ellipse fill="none" stroke="black" cx="55.54" cy="-378" rx="55.54" ry="18"/>
<text text-anchor="middle" x="55.54" y="-373.8" font-family="Times,serif" font-size="14.00">branchA[1]</text>
</g>
<!-- root[0]&#45;&gt;branchA[1] -->
<g id="edge1" class="edge">
<title>root[0]&#45;&gt;branchA[1]</title>
<path fill="none" stroke="black" d="M182.21,-506.11C169.2,-495.82 151.88,-481.6 137.54,-468 116.03,-447.59 93.31,-422.63 77.26,-404.34"/>
<polygon fill="black" stroke="black" points="79.93,-402.08 70.72,-396.84 74.65,-406.68 79.93,-402.08"/>
</g>
<!-- branchB[1] -->
<g id="node9" class="node">
<title>branchB[1]</title>
<ellipse fill="none" stroke="black" cx="201.54" cy="-450" rx="55.01" ry="18"/>
<text text-anchor="middle" x="201.54" y="-445.8" font-family="Times,serif" font-size="14.00">branchB[1]</text>
</g>
<!-- root[0]&#45;&gt;branchB[1] -->
<g id="edge10" class="edge">
<title>root[0]&#45;&gt;branchB[1]</title>
<path fill="none" stroke="black" d="M201.54,-503.7C201.54,-496.41 201.54,-487.73 201.54,-479.54"/>
<polygon fill="black" stroke="black" points="205.04,-479.62 201.54,-469.62 198.04,-479.62 205.04,-479.62"/>
</g>
<!-- subflow_main[1] -->
<g id="node12" class="node">
<title>subflow_main[1]</title>
<ellipse fill="none" stroke="black" cx="358.54" cy="-450" rx="77.55" ry="18"/>
<text text-anchor="middle" x="358.54" y="-445.8" font-family="Times,serif" font-size="14.00">subflow_main[1]</text>
</g>
<!-- root[0]&#45;&gt;subflow_main[1] -->
<g id="edge16" class="edge">
<title>root[0]&#45;&gt;subflow_main[1]</title>
<path fill="none" stroke="black" d="M228.53,-508.97C251.93,-498.53 286.27,-483.23 313.78,-470.96"/>
<polygon fill="black" stroke="black" points="314.86,-474.31 322.57,-467.04 312.01,-467.92 314.86,-474.31"/>
</g>
<!-- A1[2] -->
<g id="node3" class="node">
<title>A1[2]</title>
<ellipse fill="none" stroke="black" cx="39.54" cy="-306" rx="34.1" ry="18"/>
<text text-anchor="middle" x="39.54" y="-301.8" font-family="Times,serif" font-size="14.00">A1[2]</text>
</g>
<!-- branchA[1]&#45;&gt;A1[2] -->
<g id="edge2" class="edge">
<title>branchA[1]&#45;&gt;A1[2]</title>
<path fill="none" stroke="black" d="M51.59,-359.7C49.9,-352.32 47.89,-343.52 46,-335.25"/>
<polygon fill="black" stroke="black" points="49.43,-334.55 43.79,-325.58 42.61,-336.11 49.43,-334.55"/>
</g>
<!-- join1[4] -->
<g id="node4" class="node">
<title>join1[4]</title>
<ellipse fill="none" stroke="black" cx="139.54" cy="-234" rx="42.15" ry="18"/>
<text text-anchor="middle" x="139.54" y="-229.8" font-family="Times,serif" font-size="14.00">join1[4]</text>
</g>
<!-- branchA[1]&#45;&gt;join1[4] -->
<g id="edge9" class="edge">
<title>branchA[1]&#45;&gt;join1[4]</title>
<path fill="none" stroke="black" d="M65.68,-359.87C80.13,-335.43 106.81,-290.33 123.84,-261.55"/>
<polygon fill="black" stroke="black" points="126.79,-263.44 128.87,-253.05 120.76,-259.88 126.79,-263.44"/>
</g>
<!-- A1[2]&#45;&gt;join1[4] -->
<g id="edge3" class="edge">
<title>A1[2]&#45;&gt;join1[4]</title>
<path fill="none" stroke="black" d="M59.3,-291.17C73.58,-281.18 93.12,-267.5 109.34,-256.14"/>
<polygon fill="black" stroke="black" points="111.02,-259.24 117.21,-250.64 107.01,-253.5 111.02,-259.24"/>
</g>
<!-- post1[5] -->
<g id="node5" class="node">
<title>post1[5]</title>
<ellipse fill="none" stroke="black" cx="87.54" cy="-162" rx="43.22" ry="18"/>
<text text-anchor="middle" x="87.54" y="-157.8" font-family="Times,serif" font-size="14.00">post1[5]</text>
</g>
<!-- join1[4]&#45;&gt;post1[5] -->
<g id="edge4" class="edge">
<title>join1[4]&#45;&gt;post1[5]</title>
<path fill="none" stroke="black" d="M127.22,-216.41C121.07,-208.13 113.49,-197.92 106.61,-188.66"/>
<polygon fill="black" stroke="black" points="109.45,-186.63 100.68,-180.68 103.84,-190.8 109.45,-186.63"/>
</g>
<!-- post2[5] -->
<g id="node8" class="node">
<title>post2[5]</title>
<ellipse fill="none" stroke="black" cx="191.54" cy="-162" rx="43.22" ry="18"/>
<text text-anchor="middle" x="191.54" y="-157.8" font-family="Times,serif" font-size="14.00">post2[5]</text>
</g>
<!-- join1[4]&#45;&gt;post2[5] -->
<g id="edge7" class="edge">
<title>join1[4]&#45;&gt;post2[5]</title>
<path fill="none" stroke="black" d="M151.87,-216.41C158.02,-208.13 165.6,-197.92 172.48,-188.66"/>
<polygon fill="black" stroke="black" points="175.25,-190.8 178.41,-180.68 169.63,-186.63 175.25,-190.8"/>
</g>
<!-- merge[6] -->
<g id="node6" class="node">
<title>merge[6]</title>
<ellipse fill="none" stroke="black" cx="139.54" cy="-90" rx="46.42" ry="18"/>
<text text-anchor="middle" x="139.54" y="-85.8" font-family="Times,serif" font-size="14.00">merge[6]</text>
</g>
<!-- post1[5]&#45;&gt;merge[6] -->
<g id="edge5" class="edge">
<title>post1[5]&#45;&gt;merge[6]</title>
<path fill="none" stroke="black" d="M99.87,-144.41C106.02,-136.13 113.6,-125.92 120.48,-116.66"/>
<polygon fill="black" stroke="black" points="123.25,-118.8 126.41,-108.68 117.63,-114.63 123.25,-118.8"/>
</g>
<!-- end[7] -->
<g id="node7" class="node">
<title>end[7]</title>
<ellipse fill="none" stroke="black" cx="139.54" cy="-18" rx="36.24" ry="18"/>
<text text-anchor="middle" x="139.54" y="-13.8" font-family="Times,serif" font-size="14.00">end[7]</text>
</g>
<!-- merge[6]&#45;&gt;end[7] -->
<g id="edge6" class="edge">
<title>merge[6]&#45;&gt;end[7]</title>
<path fill="none" stroke="black" d="M139.54,-71.7C139.54,-64.41 139.54,-55.73 139.54,-47.54"/>
<polygon fill="black" stroke="black" points="143.04,-47.62 139.54,-37.62 136.04,-47.62 143.04,-47.62"/>
</g>
<!-- post2[5]&#45;&gt;merge[6] -->
<g id="edge8" class="edge">
<title>post2[5]&#45;&gt;merge[6]</title>
<path fill="none" stroke="black" d="M179.22,-144.41C173.07,-136.13 165.49,-125.92 158.61,-116.66"/>
<polygon fill="black" stroke="black" points="161.45,-114.63 152.68,-108.68 155.84,-118.8 161.45,-114.63"/>
</g>
<!-- branchB[1]&#45;&gt;join1[4] -->
<g id="edge14" class="edge">
<title>branchB[1]&#45;&gt;join1[4]</title>
<path fill="none" stroke="black" d="M184.03,-432.52C174.86,-422.81 164.35,-409.75 158.54,-396 140.12,-352.35 137.71,-296.5 138.22,-263.36"/>
<polygon fill="black" stroke="black" points="141.71,-263.84 138.47,-253.75 134.71,-263.66 141.71,-263.84"/>
</g>
<!-- B1[2] -->
<g id="node10" class="node">
<title>B1[2]</title>
<ellipse fill="none" stroke="black" cx="201.54" cy="-378" rx="33.57" ry="18"/>
<text text-anchor="middle" x="201.54" y="-373.8" font-family="Times,serif" font-size="14.00">B1[2]</text>
</g>
<!-- branchB[1]&#45;&gt;B1[2] -->
<g id="edge11" class="edge">
<title>branchB[1]&#45;&gt;B1[2]</title>
<path fill="none" stroke="black" d="M201.54,-431.7C201.54,-424.41 201.54,-415.73 201.54,-407.54"/>
<polygon fill="black" stroke="black" points="205.04,-407.62 201.54,-397.62 198.04,-407.62 205.04,-407.62"/>
</g>
<!-- subflow_branch[3] -->
<g id="node11" class="node">
<title>subflow_branch[3]</title>
<ellipse fill="none" stroke="black" cx="252.54" cy="-306" rx="84.52" ry="18"/>
<text text-anchor="middle" x="252.54" y="-301.8" font-family="Times,serif" font-size="14.00">subflow_branch[3]</text>
</g>
<!-- branchB[1]&#45;&gt;subflow_branch[3] -->
<g id="edge15" class="edge">
<title>branchB[1]&#45;&gt;subflow_branch[3]</title>
<path fill="none" stroke="black" d="M219.2,-432.58C228.42,-422.89 238.93,-409.83 244.54,-396 252.27,-376.96 254.15,-353.8 254.15,-335.88"/>
<polygon fill="black" stroke="black" points="257.65,-335.86 253.94,-325.94 250.66,-336.01 257.65,-335.86"/>
</g>
<!-- B1[2]&#45;&gt;subflow_branch[3] -->
<g id="edge12" class="edge">
<title>B1[2]&#45;&gt;subflow_branch[3]</title>
<path fill="none" stroke="black" d="M213.37,-360.76C219.31,-352.61 226.66,-342.53 233.38,-333.31"/>
<polygon fill="black" stroke="black" points="236.12,-335.49 239.18,-325.35 230.46,-331.37 236.12,-335.49"/>
</g>
<!-- subflow_branch[3]&#45;&gt;join1[4] -->
<g id="edge13" class="edge">
<title>subflow_branch[3]&#45;&gt;join1[4]</title>
<path fill="none" stroke="black" d="M226.05,-288.59C210.02,-278.66 189.45,-265.91 172.39,-255.34"/>
<polygon fill="black" stroke="black" points="174.44,-252.5 164.09,-250.21 170.75,-258.45 174.44,-252.5"/>
</g>
<!-- subflow_main[1]&#45;&gt;join1[4] -->
<g id="edge17" class="edge">
<title>subflow_main[1]&#45;&gt;join1[4]</title>
<path fill="none" stroke="black" d="M363.15,-431.58C370.57,-399.19 381.1,-329.25 346.54,-288 326.81,-264.44 245.89,-249.17 191.26,-241.33"/>
<polygon fill="black" stroke="black" points="191.92,-237.89 181.53,-239.98 190.96,-244.83 191.92,-237.89"/>
</g>
</g>
</svg>
